<svg xmlns="http://www.w3.org/2000/svg" version="1.1" xmlns:xlink="http://www.w3.org/1999/xlink" xmlns:svgjs="http://svgjs.dev/svgjs" width="2000" height="217" viewBox="0 0 2000 217"><g transform="matrix(1,0,0,1,-1.2121212004295785,-0.8410777958011124)"><svg viewBox="0 0 396 43" data-background-color="#ffffff" preserveAspectRatio="xMidYMid meet" height="217" width="2000" xmlns="http://www.w3.org/2000/svg" xmlns:xlink="http://www.w3.org/1999/xlink"><g id="tight-bounds" transform="matrix(1,0,0,1,0.24000000231495733,0.16666651853429926)"><svg viewBox="0 0 395.52 42.666666666666664" height="42.666666666666664" width="395.52"><g><svg viewBox="0 0 395.52 42.666666666666664" height="42.666666666666664" width="395.52"><g><svg viewBox="0 0 395.52 42.666666666666664" height="42.666666666666664" width="395.52"><g><svg viewBox="0 0 395.52 42.666666666666664" height="42.666666666666664" width="395.52"><g><svg viewBox="0 0 395.52 42.666666666666664" height="42.666666666666664" width="395.52"><g transform="matrix(1,0,0,1,0,0)"><svg width="395.52" viewBox="1.3700000047683716 -42.189998626708984 407.3500061035156 43.94999694824219" height="42.666666666666664" data-palette-color="#2563EB"><path d="M34.57 0L34.57-21.12 36.33-21.12 36.33 0 34.57 0ZM41.6 0L41.6-21.12 43.36-21.12 43.36 0 41.6 0ZM38.09 0L38.09-21.12 39.84-21.12 39.84 0 38.09 0ZM31.05-21.12L32.81-21.12 32.81 0Q28.17 1.76 23.19 1.76L23.19 1.76Q18.87 1.76 14.92 0.17 10.96-1.42 7.96-4.24 4.96-7.06 3.16-11.22 1.37-15.38 1.37-20.21L1.37-20.21Q1.37-24.68 3.11-28.75 4.86-32.81 7.8-35.75 10.74-38.7 14.81-40.44 18.87-42.19 23.34-42.19L23.34-42.19Q28.91-42.19 33.69-39.6 38.48-37.01 41.5-32.57L41.5-32.57 40.04-31.62Q37.26-35.69 32.85-38.06 28.44-40.43 23.34-40.43L23.34-40.43Q19.24-40.43 15.49-38.83 11.74-37.23 9.03-34.52 6.32-31.81 4.72-28.06 3.13-24.32 3.13-20.21L3.13-20.21Q3.13-15.8 4.77-11.96 6.42-8.13 9.17-5.54 11.91-2.95 15.55-1.48 19.19 0 23.12 0L23.12 0Q27.25 0 31.05-1.29L31.05-1.29 31.05-2.98Q27.42-1.76 23.41-1.76L23.41-1.76Q20.51-1.76 17.76-2.58 15.01-3.39 12.68-4.99 10.35-6.59 8.61-8.8 6.86-11.01 5.87-13.95 4.88-16.89 4.88-20.21L4.88-20.21Q4.88-25.22 7.36-29.47 9.84-33.72 14.09-36.19 18.33-38.67 23.34-38.67L23.34-38.67Q28.03-38.67 32.06-36.49 36.08-34.3 38.62-30.57L38.62-30.57 37.16-29.61Q34.86-32.98 31.21-34.95 27.56-36.91 23.34-36.91L23.34-36.91Q19.95-36.91 16.85-35.6 13.75-34.28 11.51-32.04 9.28-29.81 7.96-26.71 6.64-23.61 6.64-20.21L6.64-20.21Q6.64-17.16 7.53-14.49 8.42-11.82 10-9.83 11.57-7.84 13.67-6.41 15.77-4.98 18.25-4.25 20.73-3.52 23.34-3.52L23.34-3.52Q27.39-3.52 31.05-4.88L31.05-4.88 31.05-6.64Q27.44-5.25 23.51-5.25L23.51-5.25Q20.53-5.25 17.82-6.26 15.11-7.28 13-9.13 10.89-10.99 9.64-13.87 8.4-16.75 8.4-20.21L8.4-20.21Q8.4-24.27 10.4-27.71 12.4-31.15 15.84-33.15 19.29-35.16 23.34-35.16L23.34-35.16Q27.12-35.16 30.38-33.4 33.64-31.64 35.69-28.61L35.69-28.61 34.23-27.66Q32.42-30.3 29.55-31.85 26.68-33.4 23.34-33.4L23.34-33.4Q19.75-33.4 16.72-31.63 13.7-29.86 11.93-26.83 10.16-23.8 10.16-20.21L10.16-20.21Q10.16-17.72 10.86-15.58 11.57-13.43 12.82-11.87 14.06-10.3 15.73-9.2 17.41-8.11 19.34-7.56 21.26-7.01 23.34-7.01L23.34-7.01Q27.47-7.01 31.05-8.64L31.05-8.64 31.05-10.33Q27.59-8.79 23.56-8.79L23.56-8.79Q21.24-8.79 19.19-9.5 17.14-10.21 15.49-11.57 13.84-12.94 12.88-15.17 11.91-17.41 11.91-20.21L11.91-20.21Q11.91-22.53 12.82-24.65 13.72-26.76 15.26-28.3 16.8-29.83 18.91-30.74 21.02-31.64 23.34-31.64L23.34-31.64Q26.25-31.64 28.74-30.29 31.23-28.93 32.79-26.61L32.79-26.61 31.35-25.66Q30.03-27.61 27.92-28.75 25.81-29.88 23.34-29.88L23.34-29.88Q19.34-29.88 16.5-27.05 13.67-24.22 13.67-20.21L13.67-20.21Q13.67-17.75 14.48-15.86 15.28-13.96 16.69-12.83 18.09-11.69 19.81-11.12 21.53-10.55 23.51-10.55L23.51-10.55Q27.56-10.55 31.05-12.23L31.05-12.23 31.05-21.12ZM58.23 0L58.23-40.43 59.98-40.43 59.98 0 58.23 0ZM54.71 0L54.71-40.43 56.47-40.43 56.47 0 54.71 0ZM51.19 0L51.19-40.43 52.95-40.43 52.95 0 51.19 0ZM47.68 0L47.68-40.43 49.44-40.43 49.44 0 47.68 0ZM90.2-38.67L63.84-38.67 63.84-40.43 90.2-40.43 90.2-38.67ZM90.2-35.16L63.84-35.16 63.84-36.91 90.2-36.91 90.2-35.16ZM70.87-31.64L63.84-31.64 63.84-33.4 90.2-33.4 90.2-31.64 83.17-31.64 83.17 0 81.42 0 81.42-31.64 79.66-31.64 79.66 0 77.9 0 77.9-31.64 76.14-31.64 76.14 0 74.38 0 74.38-31.64 72.63-31.64 72.63 0 70.87 0 70.87-31.64ZM102.97-40.43L102.97 0 101.21 0 101.21-40.43 102.97-40.43ZM99.46-40.43L99.46 0 97.7 0 97.7-40.43 99.46-40.43ZM95.94-40.43L95.94 0 94.18 0 94.18-40.43 95.94-40.43ZM106.49-15.82L106.49-8.79 125.19-8.79 125.19-7.03 106.49-7.03 106.49-5.27 125.19-5.27 125.19-3.52 106.49-3.52 106.49-1.76 125.19-1.76 125.19 0 104.73 0 104.73-40.43 125.19-40.43 125.19-38.67 106.49-38.67 106.49-36.91 125.19-36.91 125.19-35.16 106.49-35.16 106.49-33.4 125.19-33.4 125.19-31.64 106.49-31.64 106.49-24.61 116.08-24.61 116.08-22.85 106.49-22.85 106.49-21.09 116.08-21.09 116.08-19.34 106.49-19.34 106.49-17.58 116.08-17.58 116.08-15.82 106.49-15.82ZM130.07-40.43L141.76-21.85 140.71-20.19 127.99-40.43 130.07-40.43ZM155.87 0L150.43-8.64 151.45-10.3 157.95 0 155.87 0ZM134.19-40.43L143.84-25.12 142.79-23.49 132.14-40.43 134.19-40.43ZM160.02 0L152.5-11.94 153.53-13.6 162.1 0 160.02 0ZM138.37-40.43L145.91-28.44 144.89-26.81 136.29-40.43 138.37-40.43ZM164.2 0L154.6-15.26 155.63-16.92 166.27 0 164.2 0ZM142.52-40.43L147.99-31.74 146.96-30.08 140.44-40.43 142.52-40.43ZM168.35 0L156.66-18.55 157.68-20.21 170.42 0 168.35 0ZM141.69 0L167.13-40.43 169.2-40.43 143.76 0 141.69 0ZM137.54 0L163-40.43 165.05-40.43 139.61 0 137.54 0ZM133.36 0L158.83-40.43 160.9-40.43 135.44 0 133.36 0ZM129.21 0L154.68-40.43 156.75-40.43 131.29 0 129.21 0ZM187-17.38L187-19.14 197.2-19.14Q199.72-19.14 201.46-20.84 203.21-22.53 203.21-25.63L203.21-25.63Q203.21-27.95 201.38-29.8 199.55-31.64 197.2-31.64L197.2-31.64 182.12-31.64 182.12 0 180.36 0 180.36-33.4 197.2-33.4Q200.28-33.4 202.62-31.03 204.97-28.66 204.97-25.63L204.97-25.63Q204.97-21.9 202.7-19.64 200.43-17.38 197.2-17.38L197.2-17.38 187-17.38ZM187-13.87L187-15.63 197.2-15.63Q199.74-15.63 201.9-16.86 204.06-18.09 205.4-20.41 206.73-22.73 206.73-25.63L206.73-25.63Q206.73-29.39 203.86-32.28 200.99-35.16 197.2-35.16L197.2-35.16 178.6-35.16 178.6 0 176.84 0 176.84-36.91 197.2-36.91Q200.16-36.91 202.77-35.35 205.38-33.79 206.93-31.18 208.48-28.56 208.48-25.63L208.48-25.63Q208.48-22.31 206.92-19.59 205.36-16.87 202.78-15.37 200.21-13.87 197.2-13.87L197.2-13.87 187-13.87ZM187-10.35L187-12.11 197.2-12.11Q199.82-12.11 202.21-13.15 204.6-14.18 206.37-15.95 208.14-17.72 209.19-20.25 210.24-22.78 210.24-25.63L210.24-25.63Q210.24-29.05 208.46-32.07 206.68-35.08 203.66-36.88 200.65-38.67 197.2-38.67L197.2-38.67 175.09-38.67 175.09 0 173.33 0 173.33-40.43 197.2-40.43Q201.11-40.43 204.53-38.39 207.95-36.35 209.97-32.93 212-29.52 212-25.63L212-25.63Q212-22.17 210.8-19.25 209.61-16.33 207.58-14.4 205.55-12.48 202.87-11.41 200.18-10.35 197.2-10.35L197.2-10.35 187-10.35ZM185.63-28.13L185.63 0 183.87 0 183.87-29.88 197.2-29.88Q198.94-29.88 200.2-28.61 201.45-27.34 201.45-25.63L201.45-25.63Q201.45-20.9 197.2-20.9L197.2-20.9 187-20.9 187-22.66 197.2-22.66Q198.38-22.66 199.04-23.32 199.69-23.97 199.69-25.63L199.69-25.63Q199.69-26.71 198.97-27.42 198.25-28.13 197.2-28.13L197.2-28.13 185.63-28.13ZM215.85 0L215.85-40.43 217.61-40.43 217.61 0 215.85 0ZM226.4 0L226.4-40.43 228.16-40.43 228.16-8.79 242.22-8.79 242.22-7.03 228.16-7.03 228.16-5.27 242.22-5.27 242.22-3.52 228.16-3.52 228.16-1.76 242.22-1.76 242.22 0 226.4 0ZM222.89 0L222.89-40.43 224.64-40.43 224.64 0 222.89 0ZM219.37 0L219.37-40.43 221.13-40.43 221.13 0 219.37 0ZM260.33-27.05Q257.5-24.22 257.5-20.21 257.5-16.21 260.33-13.38 263.17-10.55 267.17-10.55 271.17-10.55 274.01-13.38 276.84-16.21 276.84-20.21 276.84-24.22 274.01-27.05 271.17-29.88 267.17-29.88 263.17-29.88 260.33-27.05ZM256.65-15.78Q255.74-17.9 255.74-20.21 255.74-22.53 256.65-24.65 257.55-26.76 259.09-28.3 260.63-29.83 262.74-30.74 264.85-31.64 267.17-31.64 269.49-31.64 271.6-30.74 273.71-29.83 275.25-28.3 276.79-26.76 277.69-24.65 278.6-22.53 278.6-20.21 278.6-17.9 277.69-15.78 276.79-13.67 275.25-12.13 273.71-10.6 271.6-9.69 269.49-8.79 267.17-8.79 264.85-8.79 262.74-9.69 260.63-10.6 259.09-12.13 257.55-13.67 256.65-15.78ZM255.76-26.83Q253.99-23.8 253.99-20.21 253.99-16.63 255.76-13.6 257.53-10.57 260.55-8.8 263.58-7.03 267.17-7.03 270.76-7.03 273.79-8.8 276.81-10.57 278.58-13.6 280.35-16.63 280.35-20.21 280.35-23.8 278.58-26.83 276.81-29.86 273.79-31.63 270.76-33.4 267.17-33.4 263.58-33.4 260.55-31.63 257.53-29.86 255.76-26.83ZM254.23-12.72Q252.23-16.16 252.23-20.21 252.23-24.27 254.23-27.71 256.23-31.15 259.67-33.15 263.12-35.16 267.17-35.16 271.22-35.16 274.67-33.15 278.11-31.15 280.11-27.71 282.11-24.27 282.11-20.21 282.11-16.16 280.11-12.72 278.11-9.28 274.67-7.28 271.22-5.27 267.17-5.27 263.12-5.27 259.67-7.28 256.23-9.28 254.23-12.72ZM251.79-26.71Q250.47-23.61 250.47-20.21 250.47-16.82 251.79-13.72 253.11-10.62 255.34-8.39 257.58-6.15 260.68-4.83 263.78-3.52 267.17-3.52 270.56-3.52 273.66-4.83 276.76-6.15 279-8.39 281.23-10.62 282.55-13.72 283.87-16.82 283.87-20.21 283.87-23.61 282.55-26.71 281.23-29.81 279-32.04 276.76-34.28 273.66-35.6 270.56-36.91 267.17-36.91 263.78-36.91 260.68-35.6 257.58-34.28 255.34-32.04 253.11-29.81 251.79-26.71ZM251.19-10.96Q248.71-15.21 248.71-20.21 248.71-25.22 251.19-29.47 253.67-33.72 257.92-36.19 262.17-38.67 267.17-38.67 272.17-38.67 276.42-36.19 280.67-33.72 283.15-29.47 285.63-25.22 285.63-20.21 285.63-15.21 283.15-10.96 280.67-6.71 276.42-4.24 272.17-1.76 267.17-1.76 262.17-1.76 257.92-4.24 253.67-6.71 251.19-10.96ZM248.55-28.06Q246.96-24.32 246.96-20.21 246.96-16.11 248.55-12.37 250.15-8.62 252.86-5.91 255.57-3.2 259.32-1.6 263.07 0 267.17 0 271.27 0 275.02-1.6 278.77-3.2 281.48-5.91 284.19-8.62 285.79-12.37 287.38-16.11 287.38-20.21 287.38-24.32 285.79-28.06 284.19-31.81 281.48-34.52 278.77-37.23 275.02-38.83 271.27-40.43 267.17-40.43 263.07-40.43 259.32-38.83 255.57-37.23 252.86-34.52 250.15-31.81 248.55-28.06ZM246.94-11.68Q245.2-15.75 245.2-20.21 245.2-24.68 246.94-28.75 248.69-32.81 251.63-35.75 254.57-38.7 258.64-40.44 262.7-42.19 267.17-42.19 271.64-42.19 275.7-40.44 279.77-38.7 282.71-35.75 285.65-32.81 287.4-28.75 289.14-24.68 289.14-20.21 289.14-15.75 287.4-11.68 285.65-7.62 282.71-4.68 279.77-1.73 275.7 0.01 271.64 1.76 267.17 1.76 262.7 1.76 258.64 0.01 254.57-1.73 251.63-4.68 248.69-7.62 246.94-11.68ZM306.06-18.36L306.06-20.12 316.65-20.12Q319.07-20.12 320.74-21.68 322.42-23.24 322.42-26.12L322.42-26.12Q322.42-28.25 320.66-29.94 318.9-31.64 316.65-31.64L316.65-31.64 301.57-31.64 301.57 0 299.81 0 299.81-33.4 316.65-33.4Q319.63-33.4 321.9-31.19 324.17-28.98 324.17-26.12L324.17-26.12Q324.17-22.61 321.98-20.48 319.78-18.36 316.65-18.36L316.65-18.36 306.06-18.36ZM306.06-14.84L306.06-16.6 316.65-16.6Q320.46-16.6 323.2-19.27 325.93-21.95 325.93-26.12L325.93-26.12Q325.93-29.71 323.14-32.43 320.34-35.16 316.65-35.16L316.65-35.16 298.05-35.16 298.05 0 296.29 0 296.29-36.91 316.65-36.91Q319.56-36.91 322.11-35.42 324.66-33.94 326.18-31.43 327.69-28.93 327.69-26.12L327.69-26.12Q327.69-21.31 324.43-18.08 321.17-14.84 316.65-14.84L316.65-14.84 306.06-14.84ZM306.06-11.33L306.06-13.09 316.65-13.09Q320.07-13.09 323-14.77 325.93-16.46 327.69-19.47 329.45-22.49 329.45-26.12L329.45-26.12Q329.45-29.42 327.7-32.31 325.96-35.21 323-36.94 320.05-38.67 316.65-38.67L316.65-38.67 294.54-38.67 294.54 0 292.78 0 292.78-40.43 316.65-40.43Q320.49-40.43 323.86-38.46 327.23-36.5 329.22-33.19 331.21-29.88 331.21-26.12L331.21-26.12Q331.21-21.78 329.34-18.48 327.47-15.19 324.27-13.33L324.27-13.33 328.81 0 326.96 0 322.61-12.5Q321.64-12.11 321.12-11.96L321.12-11.96 325.2 0 323.34 0 319.36-11.55Q319.15-11.5 317.8-11.38L317.8-11.38 321.59 0 319.73 0 316-11.33 314.41-11.33 317.97 0 316.12 0 312.53-11.33 306.06-11.33ZM305.08-28.13L305.08 0 303.32 0 303.32-29.88 316.65-29.88Q318.29-29.88 319.47-28.77 320.66-27.66 320.66-26.12L320.66-26.12Q320.66-21.88 316.65-21.88L316.65-21.88 306.06-21.88 306.06-23.63 316.65-23.63Q317.7-23.63 318.3-24.18 318.9-24.73 318.9-26.12L318.9-26.12Q318.9-26.98 318.25-27.55 317.61-28.13 316.65-28.13L316.65-28.13 305.08-28.13ZM343.75-40.43L343.75 0 341.99 0 341.99-40.43 343.75-40.43ZM340.24-40.43L340.24 0 338.48 0 338.48-40.43 340.24-40.43ZM336.72-40.43L336.72 0 334.96 0 334.96-40.43 336.72-40.43ZM347.27-15.82L347.27-8.79 365.97-8.79 365.97-7.03 347.27-7.03 347.27-5.27 365.97-5.27 365.97-3.52 347.27-3.52 347.27-1.76 365.97-1.76 365.97 0 345.51 0 345.51-40.43 365.97-40.43 365.97-38.67 347.27-38.67 347.27-36.91 365.97-36.91 365.97-35.16 347.27-35.16 347.27-33.4 365.97-33.4 365.97-31.64 347.27-31.64 347.27-24.61 356.86-24.61 356.86-22.85 347.27-22.85 347.27-21.09 356.86-21.09 356.86-19.34 347.27-19.34 347.27-17.58 356.86-17.58 356.86-15.82 347.27-15.82ZM383.57-18.36L383.57-20.12 394.16-20.12Q396.58-20.12 398.25-21.68 399.93-23.24 399.93-26.12L399.93-26.12Q399.93-28.25 398.17-29.94 396.41-31.64 394.16-31.64L394.16-31.64 379.08-31.64 379.08 0 377.32 0 377.32-33.4 394.16-33.4Q397.14-33.4 399.41-31.19 401.68-28.98 401.68-26.12L401.68-26.12Q401.68-22.61 399.49-20.48 397.29-18.36 394.16-18.36L394.16-18.36 383.57-18.36ZM383.57-14.84L383.57-16.6 394.16-16.6Q397.97-16.6 400.71-19.27 403.44-21.95 403.44-26.12L403.44-26.12Q403.44-29.71 400.65-32.43 397.85-35.16 394.16-35.16L394.16-35.16 375.56-35.16 375.56 0 373.8 0 373.8-36.91 394.16-36.91Q397.07-36.91 399.62-35.42 402.17-33.94 403.69-31.43 405.2-28.93 405.2-26.12L405.2-26.12Q405.2-21.31 401.94-18.08 398.68-14.84 394.16-14.84L394.16-14.84 383.57-14.84ZM383.57-11.33L383.57-13.09 394.16-13.09Q397.58-13.09 400.51-14.77 403.44-16.46 405.2-19.47 406.96-22.49 406.96-26.12L406.96-26.12Q406.96-29.42 405.21-32.31 403.47-35.21 400.51-36.94 397.56-38.67 394.16-38.67L394.16-38.67 372.05-38.67 372.05 0 370.29 0 370.29-40.43 394.16-40.43Q398-40.43 401.37-38.46 404.74-36.5 406.73-33.19 408.72-29.88 408.72-26.12L408.72-26.12Q408.72-21.78 406.85-18.48 404.98-15.19 401.78-13.33L401.78-13.33 406.32 0 404.47 0 400.12-12.5Q399.14-12.11 398.63-11.96L398.63-11.96 402.71 0 400.85 0 396.87-11.55Q396.65-11.5 395.31-11.38L395.31-11.38 399.1 0 397.24 0 393.51-11.33 391.92-11.33 395.48 0 393.63 0 390.04-11.33 383.57-11.33ZM382.59-28.13L382.59 0 380.83 0 380.83-29.88 394.16-29.88Q395.8-29.88 396.98-28.77 398.17-27.66 398.17-26.12L398.17-26.12Q398.17-21.88 394.16-21.88L394.16-21.88 383.57-21.88 383.57-23.63 394.16-23.63Q395.21-23.63 395.81-24.18 396.41-24.73 396.41-26.12L396.41-26.12Q396.41-26.98 395.76-27.55 395.12-28.13 394.16-28.13L394.16-28.13 382.59-28.13Z" opacity="1" transform="matrix(1,0,0,1,0,0)" fill="#2563EB" class="undefined-text-0" data-fill-palette-color="primary" id="text-0"></path></svg></g></svg></g></svg></g></svg></g><g></g></svg></g><defs></defs></svg><rect width="395.52" height="42.666666666666664" fill="none" stroke="none" visibility="hidden"></rect></g></svg></g></svg>